<?xml version="1.0" encoding="utf-8"?>
<!-- Generator: Adobe Illustrator 16.0.0, SVG Export Plug-In . SVG Version: 6.00 Build 0)  -->
<!DOCTYPE svg PUBLIC "-//W3C//DTD SVG 1.1//EN" "http://www.w3.org/Graphics/SVG/1.1/DTD/svg11.dtd">
<svg version="1.1" id="Layer_1" xmlns="http://www.w3.org/2000/svg" xmlns:xlink="http://www.w3.org/1999/xlink" x="0px" y="0px"
	 width="919.5px" height="700.5px" viewBox="0 0 919.5 700.5" enable-background="new 0 0 919.5 700.5" xml:space="preserve">
<circle fill="none" stroke="#010101" stroke-width="0.2835" stroke-linecap="round" stroke-linejoin="round" cx="595.583" cy="334.831" r="7.512"/>
<circle fill="none" stroke="#010101" stroke-width="0.2835" stroke-linecap="round" stroke-linejoin="round" cx="550.943" cy="334.999" r="7.512"/>
<circle fill="none" stroke="#010101" stroke-width="0.2835" stroke-linecap="round" stroke-linejoin="round" cx="506.305" cy="334.83" r="7.512"/>
<circle fill="none" stroke="#010101" stroke-width="0.2835" stroke-linecap="round" stroke-linejoin="round" cx="461.663" cy="334.831" r="7.512"/>
<circle fill="none" stroke="#010101" stroke-width="0.2835" stroke-linecap="round" stroke-linejoin="round" cx="416.793" cy="334.915" r="7.512"/>
<circle fill="none" stroke="#010101" stroke-width="0.2835" stroke-linecap="round" stroke-linejoin="round" cx="372.153" cy="335.083" r="7.512"/>
<circle fill="none" stroke="#010101" stroke-width="0.2835" stroke-linecap="round" stroke-linejoin="round" cx="327.515" cy="334.914" r="7.512"/>
<circle fill="none" stroke="#010101" stroke-width="0.2835" stroke-linecap="round" stroke-linejoin="round" cx="282.875" cy="334.915" r="7.512"/>
<circle fill="none" stroke="#010101" stroke-width="0.2835" stroke-linecap="round" stroke-linejoin="round" cx="655.419" cy="334.831" r="7.512"/>
<circle fill="none" stroke="#010101" stroke-width="0.2835" stroke-linecap="round" stroke-linejoin="round" cx="595.65" cy="390.864" r="7.512"/>
<circle fill="none" stroke="#010101" stroke-width="0.2835" stroke-linecap="round" stroke-linejoin="round" cx="551.011" cy="391.032" r="7.512"/>
<circle fill="none" stroke="#010101" stroke-width="0.2835" stroke-linecap="round" stroke-linejoin="round" cx="506.372" cy="390.862" r="7.512"/>
<circle fill="none" stroke="#010101" stroke-width="0.2835" stroke-linecap="round" stroke-linejoin="round" cx="461.732" cy="390.864" r="7.512"/>
<circle fill="none" stroke="#010101" stroke-width="0.2835" stroke-linecap="round" stroke-linejoin="round" cx="416.86" cy="390.948" r="7.512"/>
<circle fill="none" stroke="#010101" stroke-width="0.2835" stroke-linecap="round" stroke-linejoin="round" cx="372.222" cy="391.116" r="7.512"/>
<circle fill="none" stroke="#010101" stroke-width="0.2835" stroke-linecap="round" stroke-linejoin="round" cx="327.581" cy="390.946" r="7.511"/>
<circle fill="none" stroke="#010101" stroke-width="0.2835" stroke-linecap="round" stroke-linejoin="round" cx="282.94" cy="390.948" r="7.512"/>
<circle fill="none" stroke="#010101" stroke-width="0.2835" stroke-linecap="round" stroke-linejoin="round" cx="655.419" cy="391.116" r="7.512"/>
<circle fill="none" stroke="#010101" stroke-width="0.2835" stroke-linecap="round" stroke-linejoin="round" cx="595.617" cy="446.903" r="7.512"/>
<circle fill="none" stroke="#010101" stroke-width="0.2835" stroke-linecap="round" stroke-linejoin="round" cx="550.978" cy="447.071" r="7.512"/>
<circle fill="none" stroke="#010101" stroke-width="0.2835" stroke-linecap="round" stroke-linejoin="round" cx="506.338" cy="446.902" r="7.512"/>
<circle fill="none" stroke="#010101" stroke-width="0.2835" stroke-linecap="round" stroke-linejoin="round" cx="461.698" cy="446.903" r="7.512"/>
<circle fill="none" stroke="#010101" stroke-width="0.2835" stroke-linecap="round" stroke-linejoin="round" cx="416.826" cy="446.988" r="7.512"/>
<circle fill="none" stroke="#010101" stroke-width="0.2835" stroke-linecap="round" stroke-linejoin="round" cx="372.188" cy="447.156" r="7.512"/>
<circle fill="none" stroke="#010101" stroke-width="0.2835" stroke-linecap="round" stroke-linejoin="round" cx="327.547" cy="446.986" r="7.512"/>
<circle fill="none" stroke="#010101" stroke-width="0.2835" stroke-linecap="round" stroke-linejoin="round" cx="282.906" cy="446.988" r="7.512"/>
<circle fill="none" stroke="#010101" stroke-width="0.2835" stroke-linecap="round" stroke-linejoin="round" cx="655.386" cy="447.156" r="7.512"/>
<circle fill="none" stroke="#010101" stroke-width="0.2835" stroke-linecap="round" stroke-linejoin="round" cx="595.685" cy="502.937" r="7.512"/>
<circle fill="none" stroke="#010101" stroke-width="0.2835" stroke-linecap="round" stroke-linejoin="round" cx="551.046" cy="503.104" r="7.512"/>
<circle fill="none" stroke="#010101" stroke-width="0.2835" stroke-linecap="round" stroke-linejoin="round" cx="506.405" cy="502.936" r="7.512"/>
<circle fill="none" stroke="#010101" stroke-width="0.2835" stroke-linecap="round" stroke-linejoin="round" cx="461.766" cy="502.937" r="7.512"/>
<circle fill="none" stroke="#010101" stroke-width="0.2835" stroke-linecap="round" stroke-linejoin="round" cx="416.895" cy="503.021" r="7.512"/>
<circle fill="none" stroke="#010101" stroke-width="0.2835" stroke-linecap="round" stroke-linejoin="round" cx="372.254" cy="503.189" r="7.512"/>
<circle fill="none" stroke="#010101" stroke-width="0.2835" stroke-linecap="round" stroke-linejoin="round" cx="327.615" cy="503.02" r="7.512"/>
<circle fill="none" stroke="#010101" stroke-width="0.2835" stroke-linecap="round" stroke-linejoin="round" cx="282.975" cy="503.021" r="7.512"/>
<circle fill="none" stroke="#010101" stroke-width="0.2835" stroke-linecap="round" stroke-linejoin="round" cx="655.452" cy="503.189" r="7.512"/>
<circle fill="none" stroke="#010101" stroke-width="0.2835" stroke-linecap="round" stroke-linejoin="round" cx="655.419" cy="362.729" r="13.181"/>
<circle fill="none" stroke="#010101" stroke-width="0.2835" stroke-linecap="round" stroke-linejoin="round" cx="595.614" cy="362.722" r="13.181"/>
<circle fill="none" stroke="#010101" stroke-width="0.2835" stroke-linecap="round" stroke-linejoin="round" cx="551.044" cy="362.622" r="13.181"/>
<circle fill="none" stroke="#010101" stroke-width="0.2835" stroke-linecap="round" stroke-linejoin="round" cx="506.405" cy="362.622" r="13.181"/>
<circle fill="none" stroke="#010101" stroke-width="0.2835" stroke-linecap="round" stroke-linejoin="round" cx="461.766" cy="362.726" r="13.181"/>
<circle fill="none" stroke="#010101" stroke-width="0.2835" stroke-linecap="round" stroke-linejoin="round" cx="417.023" cy="362.728" r="13.181"/>
<circle fill="none" stroke="#010101" stroke-width="0.2835" stroke-linecap="round" stroke-linejoin="round" cx="372.383" cy="362.622" r="13.181"/>
<circle fill="none" stroke="#010101" stroke-width="0.2835" stroke-linecap="round" stroke-linejoin="round" cx="327.744" cy="362.729" r="13.18"/>
<circle fill="none" stroke="#010101" stroke-width="0.2835" stroke-linecap="round" stroke-linejoin="round" cx="283.104" cy="362.622" r="13.181"/>
<circle fill="none" stroke="#010101" stroke-width="0.2835" stroke-linecap="round" stroke-linejoin="round" cx="655.337" cy="418.835" r="13.181"/>
<circle fill="none" stroke="#010101" stroke-width="0.2835" stroke-linecap="round" stroke-linejoin="round" cx="595.533" cy="418.829" r="13.181"/>
<circle fill="none" stroke="#010101" stroke-width="0.2835" stroke-linecap="round" stroke-linejoin="round" cx="550.964" cy="418.729" r="13.181"/>
<circle fill="none" stroke="#010101" stroke-width="0.2835" stroke-linecap="round" stroke-linejoin="round" cx="506.324" cy="418.729" r="13.181"/>
<circle fill="none" stroke="#010101" stroke-width="0.2835" stroke-linecap="round" stroke-linejoin="round" cx="461.684" cy="418.833" r="13.182"/>
<circle fill="none" stroke="#010101" stroke-width="0.2835" stroke-linecap="round" stroke-linejoin="round" cx="416.941" cy="418.835" r="13.182"/>
<circle fill="none" stroke="#010101" stroke-width="0.2835" stroke-linecap="round" stroke-linejoin="round" cx="372.302" cy="418.729" r="13.181"/>
<circle fill="none" stroke="#010101" stroke-width="0.2835" stroke-linecap="round" stroke-linejoin="round" cx="327.663" cy="418.835" r="13.18"/>
<circle fill="none" stroke="#010101" stroke-width="0.2835" stroke-linecap="round" stroke-linejoin="round" cx="283.022" cy="418.729" r="13.181"/>
<circle fill="none" stroke="#010101" stroke-width="0.2835" stroke-linecap="round" stroke-linejoin="round" cx="655.438" cy="475.099" r="13.182"/>
<circle fill="none" stroke="#010101" stroke-width="0.2835" stroke-linecap="round" stroke-linejoin="round" cx="595.634" cy="475.093" r="13.181"/>
<circle fill="none" stroke="#010101" stroke-width="0.2835" stroke-linecap="round" stroke-linejoin="round" cx="551.064" cy="474.993" r="13.181"/>
<circle fill="none" stroke="#010101" stroke-width="0.2835" stroke-linecap="round" stroke-linejoin="round" cx="506.425" cy="474.993" r="13.181"/>
<circle fill="none" stroke="#010101" stroke-width="0.2835" stroke-linecap="round" stroke-linejoin="round" cx="461.785" cy="475.097" r="13.181"/>
<circle fill="none" stroke="#010101" stroke-width="0.2835" stroke-linecap="round" stroke-linejoin="round" cx="417.042" cy="475.099" r="13.181"/>
<circle fill="none" stroke="#010101" stroke-width="0.2835" stroke-linecap="round" stroke-linejoin="round" cx="372.403" cy="474.993" r="13.181"/>
<circle fill="none" stroke="#010101" stroke-width="0.2835" stroke-linecap="round" stroke-linejoin="round" cx="327.765" cy="475.099" r="13.18"/>
<circle fill="none" stroke="#010101" stroke-width="0.2835" stroke-linecap="round" stroke-linejoin="round" cx="283.125" cy="474.993" r="13.181"/>
<circle fill="none" stroke="#010101" stroke-width="0.2835" stroke-linecap="round" stroke-linejoin="round" cx="655.337" cy="531.259" r="13.181"/>
<circle fill="none" stroke="#010101" stroke-width="0.2835" stroke-linecap="round" stroke-linejoin="round" cx="595.533" cy="531.253" r="13.181"/>
<circle fill="none" stroke="#010101" stroke-width="0.2835" stroke-linecap="round" stroke-linejoin="round" cx="550.964" cy="531.153" r="13.181"/>
<circle fill="none" stroke="#010101" stroke-width="0.2835" stroke-linecap="round" stroke-linejoin="round" cx="506.324" cy="531.153" r="13.181"/>
<circle fill="none" stroke="#010101" stroke-width="0.2835" stroke-linecap="round" stroke-linejoin="round" cx="461.684" cy="531.257" r="13.182"/>
<circle fill="none" stroke="#010101" stroke-width="0.2835" stroke-linecap="round" stroke-linejoin="round" cx="416.941" cy="531.259" r="13.182"/>
<circle fill="none" stroke="#010101" stroke-width="0.2835" stroke-linecap="round" stroke-linejoin="round" cx="372.302" cy="531.153" r="13.181"/>
<circle fill="none" stroke="#010101" stroke-width="0.2835" stroke-linecap="round" stroke-linejoin="round" cx="327.663" cy="531.259" r="13.18"/>
<circle fill="none" stroke="#010101" stroke-width="0.2835" stroke-linecap="round" stroke-linejoin="round" cx="283.022" cy="531.153" r="13.181"/>
<circle fill="none" stroke="#010101" stroke-width="0.2835" stroke-linecap="round" stroke-linejoin="round" cx="666.876" cy="260.877" r="13.181"/>
<circle fill="none" stroke="#010101" stroke-width="0.2835" stroke-linecap="round" stroke-linejoin="round" cx="248.658" cy="362.622" r="8.646"/>
<circle fill="none" stroke="#010101" stroke-width="0.2835" stroke-linecap="round" stroke-linejoin="round" cx="221.3" cy="362.622" r="8.646"/>
<circle fill="none" stroke="#010101" stroke-width="0.2835" stroke-linecap="round" stroke-linejoin="round" cx="248.658" cy="418.886" r="8.646"/>
<circle fill="none" stroke="#010101" stroke-width="0.2835" stroke-linecap="round" stroke-linejoin="round" cx="221.3" cy="418.782" r="8.646"/>
<circle fill="none" stroke="#010101" stroke-width="0.2835" stroke-linecap="round" stroke-linejoin="round" cx="248.657" cy="475.057" r="8.646"/>
<circle fill="none" stroke="#010101" stroke-width="0.2835" stroke-linecap="round" stroke-linejoin="round" cx="221.299" cy="475.057" r="8.646"/>
<circle fill="none" stroke="#010101" stroke-width="0.2835" stroke-linecap="round" stroke-linejoin="round" cx="248.657" cy="531.32" r="8.646"/>
<circle fill="none" stroke="#010101" stroke-width="0.2835" stroke-linecap="round" stroke-linejoin="round" cx="221.299" cy="531.217" r="8.646"/>
<circle fill="none" stroke="#010101" stroke-width="0.2835" stroke-linecap="round" stroke-linejoin="round" cx="292.363" cy="257.393" r="8.646"/>
<circle fill="none" stroke="#010101" stroke-width="0.2835" stroke-linecap="round" stroke-linejoin="round" cx="348.02" cy="258.111" r="8.646"/>
<circle fill="none" stroke="#010101" stroke-width="0.2835" stroke-linecap="round" stroke-linejoin="round" cx="347.802" cy="295.913" r="9.921"/>
<circle fill="none" stroke="#010101" stroke-width="0.2835" stroke-linecap="round" stroke-linejoin="round" cx="292.364" cy="295.192" r="9.921"/>
<circle fill="none" stroke="#010101" stroke-width="0.2835" stroke-linecap="round" stroke-linejoin="round" cx="235.23" cy="310.673" r="9.921"/>
<circle fill="none" stroke="#010101" stroke-width="0.2835" stroke-linecap="round" stroke-linejoin="round" cx="684.989" cy="238.673" r="4.536"/>
<circle fill="none" stroke="#010101" stroke-width="0.2835" stroke-linecap="round" stroke-linejoin="round" cx="198.271" cy="238.673" r="4.536"/>
<circle fill="none" stroke="#010101" stroke-width="0.2835" stroke-linecap="round" stroke-linejoin="round" cx="198.271" cy="554.749" r="4.535"/>
<circle fill="none" stroke="#010101" stroke-width="0.2835" stroke-linecap="round" stroke-linejoin="round" cx="684.987" cy="554.75" r="4.535"/>
<rect x="213.793" y="225.75" fill="none" stroke="#010101" stroke-width="0.2835" stroke-linecap="round" stroke-linejoin="round" width="35.717" height="48.308"/>
<polygon fill="none" stroke="#6E1918" stroke-width="0.2835" stroke-miterlimit="10" points="701.841,265.026 701.841,231.472 
	673.489,231.472 602.639,231.472 602.639,222.141 568.623,222.141 568.623,231.472 469.965,231.472 469.965,221.792 
	413.273,221.792 413.273,231.472 314.774,231.472 314.774,222.551 280.761,222.551 280.761,231.472 191.036,231.472 
	181.415,231.472 181.415,265.026 191.059,265.026 191.059,368.349 181.553,368.349 181.553,425.039 191.059,425.039 
	191.059,527.922 181.415,527.922 181.415,561.95 209.762,561.95 280.761,561.95 280.761,571.342 314.774,571.342 314.774,561.95 
	413.273,561.95 413.273,571.596 469.965,571.596 469.965,561.95 568.623,561.95 568.623,570.979 602.639,570.979 602.639,561.95 
	673.489,561.95 701.841,561.95 701.841,527.922 692.192,527.922 692.192,425.039 701.704,425.039 701.702,368.349 692.192,368.349 
	692.192,265.026 "/>
<rect x="214.361" y="137.351" fill="none" stroke="#000000" stroke-width="0.2835" width="34.582" height="31.039"/>
<polygon fill="none" stroke="#0000FF" stroke-width="0.7087" stroke-miterlimit="10" points="115.92,561.938 152.743,561.938 
	152.743,527.645 162.67,527.645 162.67,425.324 152.882,425.324 152.882,368.063 162.67,368.063 162.67,265.257 152.743,265.257 
	152.743,231.438 115.904,231.438 115.904,265.257 105.977,265.257 105.977,368.063 115.904,368.063 115.904,425.324 
	105.977,425.324 105.977,527.645 115.904,527.645 115.904,561.938 "/>
<polygon fill="none" stroke="#0000FF" stroke-width="0.7087" stroke-miterlimit="10" points="730.379,561.938 767.203,561.938 
	767.203,527.645 777.129,527.645 777.129,425.324 767.342,425.324 767.342,368.063 777.129,368.063 777.129,265.257 
	767.203,265.257 767.203,231.438 730.363,231.438 730.363,265.257 720.437,265.257 720.437,368.063 730.363,368.063 
	730.363,425.324 720.437,425.324 720.437,527.645 730.363,527.645 730.363,561.938 "/>
<polygon fill="none" stroke="#0000FF" stroke-width="0.7087" stroke-miterlimit="10" points="602.922,118.058 602.922,127.555 
	568.34,127.555 568.34,118.058 470.249,118.058 470.249,127.994 412.989,127.994 412.989,118.058 315.059,118.058 315.059,127.234 
	280.476,127.234 280.476,118.058 181.415,118.058 181.415,174.751 280.476,174.751 280.476,165.575 315.059,165.575 
	315.059,174.751 412.989,174.751 412.989,164.815 470.249,164.815 470.249,174.751 568.34,174.751 568.34,165.164 602.922,165.164 
	602.922,174.751 701.841,174.751 701.841,118.058 "/>
<polygon fill="none" stroke="#0000FF" stroke-width="0.7087" stroke-miterlimit="10" points="602.922,590.284 602.922,599.78 
	568.34,599.78 568.34,590.284 470.249,590.284 470.249,600.22 412.989,600.22 412.989,590.284 315.059,590.284 315.059,599.46 
	280.476,599.46 280.476,590.284 181.415,590.284 181.415,646.978 280.476,646.978 280.476,637.802 315.059,637.802 315.059,646.978 
	412.989,646.978 412.989,637.042 470.249,637.042 470.249,646.978 568.34,646.978 568.34,637.39 602.922,637.39 602.922,646.978 
	701.841,646.978 701.841,590.284 "/>
</svg>
