<?xml version="1.0" encoding="utf-8"?>
<!-- Generator: Adobe Illustrator 16.0.0, SVG Export Plug-In . SVG Version: 6.00 Build 0)  -->
<!DOCTYPE svg PUBLIC "-//W3C//DTD SVG 1.1//EN" "http://www.w3.org/Graphics/SVG/1.1/DTD/svg11.dtd">
<svg version="1.1" id="Layer_1" xmlns="http://www.w3.org/2000/svg" xmlns:xlink="http://www.w3.org/1999/xlink" x="0px" y="0px"
	 width="1295.27px" height="696.332px" viewBox="0 0 1295.27 696.332" enable-background="new 0 0 1295.27 696.332"
	 xml:space="preserve">
<circle fill="none" stroke="#064944" stroke-width="0.7087" cx="106.286" cy="357.92" r="10.485"/>
<circle fill="none" stroke="#064944" stroke-width="0.7087" cx="106.287" cy="357.92" r="25.512"/>
<path fill="none" stroke="#064944" stroke-width="0.7087" d="M175.189,347.438c5.789,0,10.486,4.69,10.486,10.483
	c0,5.789-4.697,10.481-10.486,10.481c-5.793,0-10.486-4.692-10.486-10.481C164.702,352.128,169.397,347.438,175.189,347.438z"/>
<circle fill="none" stroke="#064944" stroke-width="0.7087" cx="175.19" cy="357.92" r="25.51"/>
<circle fill="none" stroke="#064944" stroke-width="0.7087" cx="244.091" cy="357.92" r="10.485"/>
<circle fill="none" stroke="#064944" stroke-width="0.7087" cx="244.092" cy="357.92" r="25.511"/>
<circle fill="none" stroke="#064944" stroke-width="0.7087" cx="312.995" cy="357.92" r="10.485"/>
<circle fill="none" stroke="#064944" stroke-width="0.7087" cx="312.996" cy="357.92" r="25.511"/>
<circle fill="none" stroke="#064944" stroke-width="0.7087" cx="312.995" cy="421.397" r="10.487"/>
<circle fill="none" stroke="#064944" stroke-width="0.7087" cx="312.996" cy="421.397" r="25.515"/>
<circle fill="none" stroke="#064944" stroke-width="0.7087" cx="244.092" cy="421.397" r="8.929"/>
<circle fill="none" stroke="#064944" stroke-width="0.7087" cx="175.188" cy="421.399" r="8.929"/>
<circle fill="none" stroke="#064944" stroke-width="0.7087" cx="106.286" cy="506.174" r="10.487"/>
<circle fill="none" stroke="#064944" stroke-width="0.7087" cx="106.287" cy="506.174" r="25.517"/>
<circle fill="none" stroke="#064944" stroke-width="0.7087" cx="175.188" cy="506.174" r="10.487"/>
<circle fill="none" stroke="#064944" stroke-width="0.7087" cx="175.189" cy="506.174" r="25.515"/>
<circle fill="none" stroke="#064944" stroke-width="0.7087" cx="106.286" cy="421.399" r="8.929"/>
<circle fill="none" stroke="#064944" stroke-width="0.7087" cx="436.265" cy="421.394" r="8.93"/>
<circle fill="none" stroke="#064944" stroke-width="0.7087" cx="490.992" cy="421.394" r="10.488"/>
<circle fill="none" stroke="#064944" stroke-width="0.7087" cx="490.993" cy="421.394" r="25.516"/>
<circle fill="none" stroke="#064944" stroke-width="0.7087" cx="559.894" cy="421.394" r="10.488"/>
<circle fill="none" stroke="#064944" stroke-width="0.7087" cx="559.895" cy="421.394" r="25.516"/>
<circle fill="none" stroke="#064944" stroke-width="0.7087" cx="490.992" cy="506.421" r="10.488"/>
<circle fill="none" stroke="#064944" stroke-width="0.7087" cx="490.993" cy="506.421" r="25.516"/>
<circle fill="none" stroke="#064944" stroke-width="0.7087" cx="559.894" cy="506.421" r="10.488"/>
<circle fill="none" stroke="#064944" stroke-width="0.7087" cx="559.895" cy="506.42" r="25.515"/>
<path fill="none" stroke="#064944" stroke-width="0.7087" d="M490.991,347.439c5.793,0,10.484,4.689,10.484,10.484
	c0,5.789-4.691,10.481-10.484,10.481s-10.488-4.692-10.488-10.481C480.503,352.13,485.199,347.439,490.991,347.439z"/>
<path fill="none" stroke="#064944" stroke-width="0.7087" d="M490.993,332.412c14.092,0,25.516,11.422,25.516,25.513
	c0,14.084-11.424,25.505-25.516,25.505c-14.093,0-25.52-11.421-25.52-25.505C465.477,343.834,476.901,332.412,490.993,332.412z"/>
<path fill="none" stroke="#064944" stroke-width="0.7087" d="M559.894,347.439c5.794,0,10.488,4.689,10.488,10.484
	c0,5.789-4.695,10.481-10.488,10.481c-5.792,0-10.482-4.692-10.482-10.481C549.407,352.13,554.102,347.439,559.894,347.439z"/>
<path fill="none" stroke="#064944" stroke-width="0.7087" d="M559.895,332.412c14.095,0,25.521,11.422,25.521,25.513
	c0,14.084-11.426,25.505-25.521,25.505c-14.091,0-25.515-11.421-25.515-25.505C534.38,343.834,545.804,332.412,559.895,332.412z"/>
<circle fill="none" stroke="#064944" stroke-width="0.7087" cx="559.895" cy="583.825" r="10.487"/>
<circle fill="none" stroke="#064944" stroke-width="0.7087" cx="559.896" cy="583.825" r="25.515"/>
<circle fill="none" stroke="#064944" stroke-width="0.7087" cx="153.347" cy="619.232" r="5.67"/>
<circle fill="none" stroke="#064944" stroke-width="0.7087" cx="204.817" cy="619.232" r="5.67"/>
<circle fill="none" stroke="#064944" stroke-width="0.7087" cx="255.857" cy="619.232" r="5.67"/>
<circle fill="none" stroke="#064944" stroke-width="0.7087" cx="307.327" cy="619.232" r="5.67"/>
<circle fill="none" stroke="#064944" stroke-width="0.7087" cx="358.788" cy="619.232" r="5.67"/>
<circle fill="none" stroke="#064944" stroke-width="0.7087" cx="410.257" cy="619.232" r="5.67"/>
<circle fill="none" stroke="#064944" stroke-width="0.7087" cx="461.3" cy="619.232" r="5.67"/>
<circle fill="none" stroke="#064944" stroke-width="0.7087" cx="512.771" cy="619.232" r="5.67"/>
<rect x="75.565" y="303.521" fill="none" stroke="#064944" stroke-width="0.7087" width="514.769" height="336.166"/>
<rect x="56.575" y="284.528" fill="none" stroke="#064944" stroke-width="0.7087" stroke-miterlimit="10" width="552.753" height="374.147"/>
<g>
	<circle fill="none" stroke="#2E368F" stroke-width="0.7087" cx="141.157" cy="254.571" r="9.921"/>
	<circle fill="none" stroke="#08A650" stroke-width="0.7087" cx="141.154" cy="254.571" r="17.008"/>
	<circle fill="none" stroke="#08A650" stroke-width="0.7087" cx="210.295" cy="254.571" r="17.008"/>
	<circle fill="none" stroke="#2E368F" stroke-width="0.7087" cx="210.295" cy="254.571" r="8.787"/>
	<polygon fill="none" stroke="#A9742A" stroke-width="0.7087" points="56.575,254.571 56.575,275.831 609.328,275.831 
		609.328,254.571 590.271,254.571 590.271,233.312 490.549,233.312 490.549,264.492 455.683,264.492 455.683,233.312 
		75.632,233.312 75.632,254.571 	"/>
</g>
<text transform="matrix(1 0 0 1 651.9355 206.8569)" fill="#010101" font-family="'MyriadPro-Regular'" font-size="12">jack pocket: 2.5mm</text>
<circle fill="none" stroke="#064944" stroke-width="0.7087" cx="244.091" cy="506.173" r="10.488"/>
<circle fill="none" stroke="#064944" stroke-width="0.7087" cx="244.092" cy="506.174" r="25.515"/>
<circle fill="none" stroke="#064944" stroke-width="0.7087" cx="312.995" cy="506.173" r="10.488"/>
<circle fill="none" stroke="#064944" stroke-width="0.7087" cx="312.996" cy="506.174" r="25.515"/>
<rect x="347.122" y="449.734" fill="none" stroke="#064944" stroke-width="0.7087" width="113.386" height="113.387"/>
<rect x="347.122" y="332.415" fill="none" stroke="#064944" stroke-width="0.7087" width="113.386" height="56.685"/>
<rect x="561.992" y="611.341" fill="none" stroke="#2E368F" stroke-width="0.7087" width="28.35" height="28.346"/>
<circle fill="none" stroke="#2E368F" stroke-width="0.7087" cx="576.167" cy="625.515" r="8.504"/>
<circle fill="none" stroke="#2E368F" stroke-width="0.7087" cx="576.167" cy="625.37" r="4.677"/>
<rect x="75.573" y="611.341" fill="none" stroke="#2E368F" stroke-width="0.7087" width="28.351" height="28.346"/>
<circle fill="none" stroke="#2E368F" stroke-width="0.7087" cx="89.748" cy="625.515" r="8.504"/>
<circle fill="none" stroke="#2E368F" stroke-width="0.7087" cx="89.748" cy="625.37" r="4.677"/>
<rect x="75.565" y="303.521" fill="none" stroke="#2E368F" stroke-width="0.7087" width="28.351" height="28.349"/>
<circle fill="none" stroke="#2E368F" stroke-width="0.7087" cx="89.74" cy="317.695" r="8.504"/>
<circle fill="none" stroke="#2E368F" stroke-width="0.7087" cx="89.74" cy="317.549" r="4.677"/>
<rect x="561.983" y="303.521" fill="none" stroke="#2E368F" stroke-width="0.7087" width="28.352" height="28.349"/>
<circle fill="none" stroke="#2E368F" stroke-width="0.7087" cx="576.159" cy="317.695" r="8.504"/>
<circle fill="none" stroke="#2E368F" stroke-width="0.7087" cx="576.159" cy="317.549" r="4.677"/>
<circle fill="none" stroke="#064944" stroke-width="0.7087" cx="106.286" cy="583.834" r="10.487"/>
<circle fill="none" stroke="#064944" stroke-width="0.7087" cx="106.286" cy="583.835" r="25.516"/>
<circle fill="none" stroke="#064944" stroke-width="0.7087" cx="690.402" cy="353.376" r="10.485"/>
<path fill="none" stroke="#064944" stroke-width="0.7087" d="M759.307,342.893c5.789,0,10.485,4.688,10.485,10.481
	c0,5.789-4.696,10.481-10.485,10.481c-5.793,0-10.485-4.692-10.485-10.481C748.818,347.584,753.514,342.893,759.307,342.893z"/>
<circle fill="none" stroke="#064944" stroke-width="0.7087" cx="828.208" cy="353.376" r="10.485"/>
<circle fill="none" stroke="#064944" stroke-width="0.7087" cx="897.111" cy="353.376" r="10.485"/>
<circle fill="none" stroke="#064944" stroke-width="0.7087" cx="896.995" cy="416.849" r="10.488"/>
<circle fill="none" stroke="#064944" stroke-width="0.7087" cx="828.092" cy="416.849" r="8.93"/>
<circle fill="none" stroke="#064944" stroke-width="0.7087" cx="759.188" cy="416.851" r="8.928"/>
<circle fill="none" stroke="#064944" stroke-width="0.7087" cx="690.286" cy="501.625" r="10.487"/>
<circle fill="none" stroke="#064944" stroke-width="0.7087" cx="759.188" cy="501.625" r="10.487"/>
<circle fill="none" stroke="#064944" stroke-width="0.7087" cx="690.286" cy="416.851" r="8.93"/>
<circle fill="none" stroke="#064944" stroke-width="0.7087" cx="1020.265" cy="416.846" r="8.929"/>
<circle fill="none" stroke="#064944" stroke-width="0.7087" cx="1074.992" cy="416.846" r="10.487"/>
<circle fill="none" stroke="#064944" stroke-width="0.7087" cx="1143.895" cy="416.846" r="10.487"/>
<circle fill="none" stroke="#064944" stroke-width="0.7087" cx="1074.992" cy="501.875" r="10.488"/>
<circle fill="none" stroke="#064944" stroke-width="0.7087" cx="1143.895" cy="501.875" r="10.488"/>
<path fill="none" stroke="#064944" stroke-width="0.7087" d="M1074.991,342.89c5.793,0,10.484,4.689,10.484,10.484
	c0,5.789-4.691,10.481-10.484,10.481s-10.488-4.692-10.488-10.481C1064.503,347.582,1069.199,342.89,1074.991,342.89z"/>
<path fill="none" stroke="#064944" stroke-width="0.7087" d="M1143.895,342.89c5.793,0,10.487,4.689,10.487,10.484
	c0,5.789-4.694,10.481-10.487,10.481s-10.483-4.692-10.483-10.481C1133.407,347.582,1138.102,342.89,1143.895,342.89z"/>
<circle fill="none" stroke="#064944" stroke-width="0.7087" cx="1143.895" cy="579.277" r="10.488"/>
<rect x="640.574" y="279.98" fill="none" stroke="#064944" stroke-width="0.7087" stroke-miterlimit="10" width="552.753" height="374.146"/>
<circle fill="none" stroke="#064944" stroke-width="0.7087" cx="828.091" cy="501.626" r="10.488"/>
<circle fill="none" stroke="#064944" stroke-width="0.7087" cx="896.995" cy="501.626" r="10.488"/>
<circle fill="none" stroke="#064944" stroke-width="0.7087" cx="690.286" cy="579.288" r="10.487"/>
<circle fill="none" stroke="#064944" stroke-width="0.7087" cx="153.347" cy="585.215" r="5.386"/>
<circle fill="none" stroke="#064944" stroke-width="0.7087" cx="180.276" cy="584.383" r="5.386"/>
<circle fill="none" stroke="#064944" stroke-width="0.7087" cx="207.204" cy="584.383" r="5.386"/>
<circle fill="none" stroke="#064944" stroke-width="0.7087" cx="234.133" cy="584.383" r="5.386"/>
<g>
	<circle fill="none" stroke="#064944" stroke-width="0.7087" cx="737.238" cy="614.051" r="5.669"/>
	<circle fill="none" stroke="#064944" stroke-width="0.7087" cx="788.709" cy="614.051" r="5.669"/>
	<circle fill="none" stroke="#064944" stroke-width="0.7087" cx="839.749" cy="614.051" r="5.669"/>
	<circle fill="none" stroke="#064944" stroke-width="0.7087" cx="891.219" cy="614.051" r="5.669"/>
	<circle fill="none" stroke="#064944" stroke-width="0.7087" cx="942.68" cy="614.051" r="5.669"/>
	<circle fill="none" stroke="#064944" stroke-width="0.7087" cx="994.149" cy="614.051" r="5.669"/>
	<circle fill="none" stroke="#064944" stroke-width="0.7087" cx="1045.192" cy="614.051" r="5.669"/>
	<circle fill="none" stroke="#064944" stroke-width="0.7087" cx="1096.663" cy="614.051" r="5.669"/>
	<circle fill="none" stroke="#064944" stroke-width="0.7087" cx="737.238" cy="580.034" r="5.386"/>
	<circle fill="none" stroke="#064944" stroke-width="0.7087" cx="764.167" cy="579.202" r="5.386"/>
	<circle fill="none" stroke="#064944" stroke-width="0.7087" cx="791.096" cy="579.202" r="5.386"/>
	<circle fill="none" stroke="#064944" stroke-width="0.7087" cx="818.025" cy="579.202" r="5.386"/>
</g>
<path fill="#50A7DD" d="M969.744,514.636c-14.067,0-25.512-11.443-25.512-25.514c0-14.066,11.443-25.512,25.512-25.512
	c14.064,0,25.512,11.441,25.512,25.512C995.256,503.191,983.811,514.636,969.744,514.636z M969.744,469.283
	c-10.941,0-19.842,8.898-19.842,19.842c0,10.941,8.899,19.842,19.842,19.842c10.941,0,19.843-8.898,19.843-19.842
	C989.587,478.183,980.686,469.283,969.744,469.283z"/>
<path fill="#50A7DD" d="M987.363,500.484c-14.067,0-25.513-11.445-25.513-25.514c0-14.066,11.443-25.514,25.513-25.514
	c14.064,0,25.511,11.445,25.511,25.514S1001.43,500.484,987.363,500.484z M987.363,455.13c-10.941,0-19.845,8.9-19.845,19.844
	c0,10.939,8.901,19.844,19.845,19.844c10.938,0,19.842-8.902,19.842-19.844C1007.205,464.031,998.304,455.13,987.363,455.13z"/>
<path fill="#50A7DD" d="M998.269,526.242c-14.064,0-25.511-11.443-25.511-25.512s11.444-25.516,25.511-25.516
	c14.067,0,25.515,11.445,25.515,25.516C1023.781,514.798,1012.336,526.242,998.269,526.242z M998.269,480.888
	c-10.938,0-19.842,8.898-19.842,19.844c0,10.939,8.901,19.842,19.842,19.842c10.941,0,19.846-8.9,19.846-19.842
	C1018.112,489.789,1009.21,480.888,998.269,480.888z"/>
<rect x="958.496" y="517.634" fill="#50A7DD" width="5.669" height="40.463"/>
<rect x="973.902" y="531.132" fill="#50A7DD" width="5.668" height="40.461"/>
<rect x="991.315" y="537.865" fill="#50A7DD" width="5.669" height="40.461"/>
<g enable-background="new    ">
	<path fill="#50A7DD" d="M1040.159,329.241v-28.484h2.965h2.984v23.428h14.165v2.52v2.538L1040.159,329.241L1040.159,329.241z"/>
	<path fill="#50A7DD" d="M1064.4,329.241v-28.484h20.269v2.52v2.538h-14.319v6.473h12.479v2.441v2.461h-12.479v12.053h-2.966
		L1064.4,329.241L1064.4,329.241z"/>
	<path fill="#50A7DD" d="M1091.062,326.005c-2.468-2.674-3.7-6.291-3.7-10.851c0-4.651,1.231-8.343,3.7-11.074
		s5.795-4.099,9.979-4.099c4.211,0,7.548,1.366,10.009,4.099c2.461,2.731,3.691,6.423,3.691,11.074c0,4.56-1.23,8.177-3.691,10.851
		c-2.461,2.676-5.797,4.013-10.009,4.013C1096.857,330.017,1093.531,328.68,1091.062,326.005z M1106.74,322.353
		c1.369-1.737,2.054-4.149,2.054-7.237c0-3.152-0.685-5.62-2.054-7.402c-1.37-1.782-3.271-2.674-5.697-2.674
		c-2.416,0-4.308,0.892-5.677,2.674c-1.37,1.782-2.056,4.25-2.056,7.402c0,3.088,0.683,5.5,2.045,7.237
		c1.362,1.736,3.259,2.605,5.688,2.605S1105.37,324.09,1106.74,322.353z"/>
</g>
<g enable-background="new    ">
	<path fill="#50A7DD" d="M714.35,300.757h3.16h3.161l6.267,21.762h-0.015l6.247-21.762h3.061h3.078l-9.649,28.484h-2.829H724
		L714.35,300.757z"/>
	<path fill="#50A7DD" d="M767.211,319.262c-0.361,3.294-1.65,5.909-3.865,7.848c-2.217,1.938-5.035,2.907-8.459,2.907
		c-4.005,0-7.186-1.337-9.543-4.013c-2.356-2.674-3.535-6.291-3.535-10.851c0-4.651,1.179-8.343,3.535-11.074
		c2.357-2.731,5.539-4.099,9.543-4.099c3.386,0,6.188,0.914,8.41,2.742c2.223,1.827,3.527,4.305,3.915,7.431h-5.948
		c-0.194-1.537-0.856-2.758-1.989-3.662c-1.132-0.904-2.57-1.355-4.316-1.355c-2.212,0-3.946,0.882-5.201,2.645
		c-1.255,1.764-1.882,4.209-1.882,7.335c0,3.049,0.624,5.437,1.873,7.16s2.985,2.587,5.21,2.587c1.747,0,3.186-0.504,4.316-1.512
		c1.133-1.008,1.795-2.37,1.989-4.089H767.211z"/>
	<path fill="#50A7DD" d="M774.167,326.005c-2.467-2.674-3.701-6.291-3.701-10.851c0-4.651,1.233-8.343,3.701-11.074
		s5.794-4.099,9.979-4.099c4.211,0,7.547,1.366,10.008,4.099c2.462,2.731,3.69,6.423,3.69,11.074c0,4.56-1.229,8.177-3.69,10.851
		c-2.461,2.676-5.797,4.013-10.008,4.013C779.961,330.017,776.635,328.68,774.167,326.005z M789.844,322.353
		c1.369-1.737,2.056-4.149,2.056-7.237c0-3.152-0.687-5.62-2.056-7.402c-1.369-1.782-3.269-2.674-5.697-2.674
		c-2.416,0-4.308,0.892-5.676,2.674c-1.371,1.782-2.055,4.25-2.055,7.402c0,3.088,0.682,5.5,2.044,7.237
		c1.363,1.736,3.258,2.605,5.687,2.605C786.576,324.958,788.475,324.09,789.844,322.353z"/>
</g>
<g enable-background="new    ">
	<path fill="#50A7DD" d="M1067.276,450.423h3.161h3.159l6.269,21.762h-0.017l6.247-21.762h3.062h3.078l-9.65,28.484h-2.829h-2.829
		L1067.276,450.423z"/>
	<path fill="#50A7DD" d="M1120.138,468.927c-0.36,3.295-1.648,5.91-3.866,7.85c-2.216,1.938-5.033,2.906-8.457,2.906
		c-4.006,0-7.187-1.338-9.543-4.014c-2.356-2.674-3.535-6.291-3.535-10.85c0-4.652,1.179-8.344,3.535-11.074
		c2.356-2.732,5.538-4.1,9.543-4.1c3.385,0,6.188,0.914,8.409,2.742c2.224,1.826,3.527,4.305,3.915,7.432h-5.948
		c-0.193-1.537-0.856-2.76-1.988-3.662c-1.132-0.904-2.571-1.355-4.317-1.355c-2.212,0-3.945,0.881-5.201,2.645
		c-1.255,1.764-1.882,4.209-1.882,7.336c0,3.049,0.624,5.436,1.873,7.16c1.249,1.723,2.985,2.586,5.21,2.586
		c1.747,0,3.188-0.504,4.317-1.512c1.132-1.01,1.795-2.369,1.988-4.09H1120.138z"/>
	<path fill="#50A7DD" d="M1124.672,478.908v-28.484h20.271v2.52v2.539h-14.32v6.473h12.479v2.439v2.463h-12.479v12.053h-2.965
		L1124.672,478.908L1124.672,478.908z"/>
</g>
<g enable-background="new    ">
	<path fill="#50A7DD" d="M814.621,479.908v-28.484h20.966v2.521v2.537h-15.019v6.047h13.934v2.439v2.461h-13.934v7.422h15.677v2.521
		v2.537L814.621,479.908L814.621,479.908z"/>
	<path fill="#50A7DD" d="M846.361,479.908h-2.771h-2.79v-28.484h3.12h3.12l11.433,19.998v-19.998h2.771h2.791v28.484h-2.965h-2.965
		l-11.744-20.541V479.908L846.361,479.908z"/>
	<path fill="#50A7DD" d="M867.482,451.423h3.159h3.162l6.267,21.762h-0.015l6.246-21.762h3.062h3.078l-9.65,28.484h-2.829h-2.829
		L867.482,451.423z"/>
</g>
<text transform="matrix(1 0 0 1 991.3154 244.6499)" fill="#50A7DD" font-family="'Helvetica-Bold'" font-size="39.685">VCO</text>
<path fill="#50A7DD" d="M907.482,321.515H804.721v5.67h102.763c7.814,0,14.174,6.356,14.174,14.173v84.419
	c0,7.814-6.358,14.174-14.174,14.174H679.918c-7.816,0-14.174-6.359-14.174-14.174v-84.419c0-7.816,6.359-14.173,14.174-14.173
	h32.428v-5.67h-32.428c-10.941,0-19.843,8.9-19.843,19.843v84.419c0,10.941,8.9,19.844,19.843,19.844h227.564
	c10.94,0,19.843-8.9,19.843-19.844v-84.419C927.325,330.415,918.424,321.515,907.482,321.515z"/>
<path fill="#50A7DD" d="M1154.382,321.515h-36.495v5.67h36.495c7.815,0,14.173,6.356,14.173,14.173v84.419
	c0,7.814-6.355,14.174-14.173,14.174h-143.046c-7.816,0-14.174-6.359-14.174-14.174v-84.419c0-7.816,6.358-14.173,14.174-14.173
	h23.38v-5.67h-23.38c-10.942,0-19.843,8.9-19.843,19.843v84.419c0,10.941,8.899,19.844,19.843,19.844h143.046
	c10.941,0,19.842-8.9,19.842-19.844v-84.419C1174.224,330.415,1165.323,321.515,1154.382,321.515z"/>
<path fill="#50A7DD" d="M907.482,471.294H892.72v5.67h14.763c7.814,0,14.174,6.359,14.174,14.176v21.225
	c0,7.814-6.358,14.174-14.174,14.174H679.918c-7.816,0-14.174-6.357-14.174-14.174V491.14c0-7.816,6.359-14.176,14.174-14.176
	h126.298v-5.67H679.918c-10.941,0-19.843,8.902-19.843,19.844v21.227c0,10.941,8.9,19.842,19.843,19.842h227.564
	c10.94,0,19.843-8.9,19.843-19.842v-21.227C927.325,480.195,918.424,471.294,907.482,471.294z"/>
<path fill="#50A7DD" d="M1154.382,471.294h-0.329h-14.242v5.668l14.242,0.002h0.329c7.815,0,14.173,6.359,14.173,14.176v21.225
	c0,7.814-6.355,14.174-14.173,14.174h-93.122c-7.812,0-14.173-6.357-14.173-14.174V491.14c0-7.816,6.358-14.176,14.173-14.176h6.016
	v-5.67h-6.016c-10.938,0-19.842,8.902-19.842,19.844v21.227c0,10.941,8.901,19.842,19.842,19.842h93.122
	c10.941,0,19.842-8.9,19.842-19.842v-21.227C1174.224,480.195,1165.323,471.294,1154.382,471.294z"/>
<polygon fill="none" stroke="#A9742A" stroke-width="0.7087" points="75.629,176.623 75.629,197.882 56.573,197.882 56.573,219.142 
	609.326,219.142 609.326,197.882 590.269,197.882 590.269,176.623 "/>
<polygon fill="none" stroke="#A9742A" stroke-width="0.7087" points="75.629,120.405 75.629,141.665 56.573,141.665 56.573,162.924 
	430.754,162.924 430.754,141.665 411.698,141.665 411.698,120.405 "/>
<polygon fill="none" stroke="#A9742A" stroke-width="0.7087" points="76.78,51.496 76.78,72.755 57.723,72.755 57.723,94.015 
	431.905,94.015 431.905,72.755 412.848,72.755 412.848,51.496 "/>
</svg>
