<?xml version="1.0" encoding="utf-8"?>
<!-- Generator: Adobe Illustrator 16.0.0, SVG Export Plug-In . SVG Version: 6.00 Build 0)  -->
<!DOCTYPE svg PUBLIC "-//W3C//DTD SVG 1.1//EN" "http://www.w3.org/Graphics/SVG/1.1/DTD/svg11.dtd">
<svg version="1.1" id="Layer_1" xmlns="http://www.w3.org/2000/svg" xmlns:xlink="http://www.w3.org/1999/xlink" x="0px" y="0px"
	 width="778.5px" height="877px" viewBox="0 0 778.5 877" enable-background="new 0 0 778.5 877" xml:space="preserve">
<path fill="none" stroke="#323232" stroke-width="0.2835" d="M120.18,283.068c0,5.479-4.44,9.925-9.921,9.925l0,0
	c-5.479,0-9.921-4.441-9.921-9.925l0,0c0-5.479,4.441-9.919,9.921-9.919l0,0C115.737,273.149,120.18,277.59,120.18,283.068
	L120.18,283.068z"/>
<path fill="none" stroke="#323232" stroke-width="0.2835" d="M176.883,283.068c0,5.479-4.44,9.925-9.921,9.925l0,0
	c-5.479,0-9.921-4.441-9.921-9.925l0,0c0-5.479,4.441-9.919,9.921-9.919l0,0C172.441,273.149,176.883,277.59,176.883,283.068
	L176.883,283.068z"/>
<path fill="none" stroke="#323232" stroke-width="0.2835" d="M517.105,212.741c0,5.479-4.438,9.922-9.931,9.922l0,0
	c-5.479,0-9.92-4.442-9.92-9.922l0,0c0-5.479,4.438-9.922,9.92-9.922l0,0C512.663,202.819,517.105,207.261,517.105,212.741
	L517.105,212.741z"/>
<path fill="none" stroke="#323232" stroke-width="0.2835" d="M120.18,219.063c0,5.479-4.44,9.922-9.921,9.922l0,0
	c-5.479,0-9.921-4.442-9.921-9.922l0,0c0-5.479,4.441-9.922,9.921-9.922l0,0C115.737,209.141,120.18,213.582,120.18,219.063
	L120.18,219.063z"/>
<path fill="none" stroke="#323232" stroke-width="0.2835" d="M120.098,345.962c0,5.479-4.44,9.922-9.921,9.922l0,0
	c-5.479,0-9.921-4.438-9.921-9.922l0,0c0-5.479,4.441-9.924,9.921-9.924l0,0C115.655,336.038,120.098,340.479,120.098,345.962
	L120.098,345.962z"/>
<path fill="none" stroke="#323232" stroke-width="0.2835" d="M176.887,345.962c0,5.479-4.44,9.922-9.921,9.922l0,0
	c-5.479,0-9.921-4.438-9.921-9.922l0,0c0-5.479,4.441-9.924,9.921-9.924l0,0C172.444,336.038,176.887,340.479,176.887,345.962
	L176.887,345.962z"/>
<path fill="none" stroke="#323232" stroke-width="0.2835" d="M233.595,345.962c0,5.479-4.44,9.922-9.921,9.922l0,0
	c-5.479,0-9.921-4.438-9.921-9.922l0,0c0-5.479,4.441-9.924,9.921-9.924l0,0C229.153,336.038,233.595,340.479,233.595,345.962
	L233.595,345.962z"/>
<path fill="none" stroke="#323232" stroke-width="0.2835" d="M290.305,345.962c0,5.479-4.44,9.922-9.922,9.922l0,0
	c-5.479,0-9.92-4.438-9.92-9.922l0,0c0-5.479,4.44-9.924,9.92-9.924l0,0C285.862,336.038,290.305,340.479,290.305,345.962
	L290.305,345.962z"/>
<path fill="none" stroke="#323232" stroke-width="0.2835" d="M347.01,345.962c0,5.479-4.438,9.922-9.922,9.922l0,0
	c-5.479,0-9.92-4.438-9.92-9.922l0,0c0-5.479,4.441-9.924,9.92-9.924l0,0C342.571,336.038,347.01,340.479,347.01,345.962
	L347.01,345.962z"/>
<path fill="none" stroke="#323232" stroke-width="0.2835" d="M403.719,345.962c0,5.479-4.438,9.922-9.922,9.922l0,0
	c-5.479,0-9.92-4.438-9.92-9.922l0,0c0-5.479,4.441-9.924,9.92-9.924l0,0C399.277,336.038,403.719,340.479,403.719,345.962
	L403.719,345.962z"/>
<path fill="none" stroke="#323232" stroke-width="0.2835" d="M460.251,345.962c0,5.479-4.441,9.922-9.924,9.922l0,0
	c-5.479,0-9.92-4.438-9.92-9.922l0,0c0-5.479,4.438-9.924,9.92-9.924l0,0C455.803,336.038,460.251,340.479,460.251,345.962
	L460.251,345.962z"/>
<path fill="none" stroke="#323232" stroke-width="0.2835" d="M517.105,345.962c0,5.479-4.438,9.922-9.933,9.922l0,0
	c-5.479,0-9.92-4.438-9.92-9.922l0,0c0-5.479,4.438-9.924,9.92-9.924l0,0C512.665,336.038,517.105,340.479,517.105,345.962
	L517.105,345.962z"/>
<path fill="none" stroke="#323232" stroke-width="0.2835" d="M517.105,283.068c0,5.479-4.438,9.925-9.933,9.925l0,0
	c-5.479,0-9.92-4.441-9.92-9.925l0,0c0-5.479,4.438-9.919,9.92-9.919l0,0C512.665,273.149,517.105,277.59,517.105,283.068
	L517.105,283.068z"/>
<path fill="none" stroke="#323232" stroke-width="0.2835" stroke-linecap="round" stroke-linejoin="round" d="M534.393,173.282"/>
<path fill="none" stroke="#323232" stroke-width="0.2835" stroke-linecap="round" stroke-linejoin="round" d="M80.853,173.278"/>
<circle fill="none" stroke="#323232" stroke-width="0.2835" stroke-miterlimit="10" cx="527.305" cy="190.059" r="4.252"/>
<path fill="none" stroke="#323232" stroke-width="0.2835" stroke-miterlimit="10" d="M92.189,190.059
	c0,2.352-1.903,4.254-4.254,4.254c-2.348,0-4.25-1.902-4.25-4.254c0-2.348,1.902-4.25,4.25-4.25
	C90.286,185.809,92.189,187.711,92.189,190.059z"/>
<path fill="none" stroke="#323232" stroke-width="0.2835" stroke-miterlimit="10" d="M92.232,395.547
	c0,2.354-1.903,4.254-4.254,4.254c-2.348,0-4.25-1.896-4.25-4.254c0-2.351,1.902-4.25,4.25-4.25
	C90.329,391.297,92.232,393.2,92.232,395.547z"/>
<path fill="none" stroke="#323232" stroke-width="0.2835" stroke-miterlimit="10" d="M92.189,447.22
	c0,2.354-1.903,4.254-4.254,4.254c-2.348,0-4.25-1.897-4.25-4.254c0-2.354,1.902-4.25,4.25-4.25
	C90.286,442.97,92.189,444.871,92.189,447.22z"/>
<path fill="none" stroke="#323232" stroke-width="0.2835" stroke-miterlimit="10" d="M531.596,395.547
	c0,2.354-1.896,4.254-4.254,4.254c-2.35,0-4.25-1.896-4.25-4.254c0-2.351,1.9-4.25,4.25-4.25
	C529.693,391.297,531.596,393.2,531.596,395.547z"/>
<path fill="none" stroke="#323232" stroke-width="0.2835" stroke-miterlimit="10" d="M531.598,447.22
	c0,2.354-1.896,4.254-4.254,4.254c-2.348,0-4.25-1.897-4.25-4.254c0-2.354,1.902-4.25,4.25-4.25
	C529.693,442.97,531.598,444.871,531.598,447.22z"/>
<g>
	<path fill="none" stroke="#323232" stroke-width="0.2835" stroke-miterlimit="10" d="M251.398,244.515
		c0.225-1.235,0.357-2.5,0.357-3.798c0-11.723-9.62-21.26-21.439-21.26c-8.594,0-16.005,5.05-19.422,12.302
		c-9.614,2.098-16.831,10.599-16.831,20.75c0,11.726,9.619,21.26,21.441,21.26c1.926,0,3.788-0.277,5.566-0.751
		c3.74,6.229,10.584,10.419,18.414,10.419c11.822,0,21.444-9.54,21.446-21.255C260.93,254.826,257.142,248.336,251.398,244.515z
		 M230.318,224.186c9.198,0,16.677,7.418,16.677,16.535c0,0.52-0.031,1.034-0.079,1.544c-2.317-0.853-4.816-1.344-7.434-1.344
		c-1.925,0-3.785,0.277-5.561,0.753c-3.565-5.927-9.942-9.986-17.302-10.363C219.636,227.008,224.648,224.186,230.318,224.186z
		 M222.805,262.183c0-0.522,0.031-1.037,0.081-1.548c1.987,0.73,4.109,1.175,6.319,1.287c-1.471,2.094-3.409,3.84-5.674,5.078
		C223.063,265.476,222.805,263.859,222.805,262.183z M230.318,257.257c-2.231,0-4.354-0.444-6.299-1.232
		c1.445-3.551,4.09-6.497,7.442-8.329c0.469,1.524,0.725,3.142,0.725,4.818c0,1.626-0.248,3.199-0.692,4.686
		C231.106,257.228,230.714,257.257,230.318,257.257z M213.635,240.721c0-1.626,0.246-3.197,0.69-4.683
		c0.394-0.028,0.782-0.059,1.178-0.059c5.811,0,10.931,2.962,13.915,7.438c-4.219,2.235-7.592,5.826-9.54,10.184
		C216.078,250.566,213.635,245.924,213.635,240.721z M235.927,246.036c1.15-0.247,2.337-0.387,3.557-0.387
		c2.23,0,4.354,0.443,6.299,1.235c-1.682,4.13-4.991,7.438-9.15,9.134c0.192-1.145,0.317-2.31,0.317-3.505
		C236.951,250.252,236.588,248.078,235.927,246.036z M215.507,269.047c-9.198,0-16.677-7.418-16.677-16.533
		c0-6.902,4.288-12.821,10.357-15.294c-0.192,1.141-0.317,2.304-0.317,3.497c0,7.354,3.794,13.844,9.535,17.667
		c-0.229,1.238-0.363,2.5-0.363,3.8c0,2.259,0.363,4.431,1.024,6.478C217.919,268.907,216.73,269.047,215.507,269.047z
		 M239.483,278.719c-5.808,0-10.928-2.963-13.915-7.442c4.094-2.17,7.389-5.619,9.36-9.804c6.72-1.467,12.259-6.062,14.987-12.167
		c3.804,3.034,6.251,7.677,6.251,12.882C256.167,271.301,248.681,278.719,239.483,278.719z"/>
	
		<rect x="206.053" y="276.267" fill="none" stroke="#323232" stroke-width="0.2835" stroke-miterlimit="10" width="4.765" height="33.718"/>
	
		<rect x="219.003" y="287.518" fill="none" stroke="#323232" stroke-width="0.2835" stroke-miterlimit="10" width="4.767" height="33.719"/>
	
		<rect x="233.639" y="293.126" fill="none" stroke="#323232" stroke-width="0.2835" stroke-miterlimit="10" width="4.767" height="33.715"/>
</g>
<path fill="none" stroke="#323232" stroke-width="0.2835" stroke-linecap="round" stroke-linejoin="round" d="M350.049,315.034
	c0,2.762-2.238,5-5,5H328.33c-2.762,0-5-2.238-5-5v-3.322c0-2.763,2.238-5,5-5h16.719c2.762,0,5,2.237,5,5V315.034L350.049,315.034z
	"/>
<path fill="none" stroke="#323232" stroke-width="0.2835" stroke-linecap="round" stroke-linejoin="round" d="M464.143,315.034
	c0,2.762-2.229,5-5,5h-16.719c-2.763,0-5.003-2.238-5.003-5v-3.322c0-2.763,2.24-5,5.003-5h16.719c2.771,0,5,2.237,5,5V315.034z"/>
<g>
	<path fill="none" stroke="#323232" stroke-width="0.2835" stroke-miterlimit="10" d="M199.039,212.175
		c-5.158,0-9.354-4.196-9.354-9.354c0-5.158,4.196-9.354,9.354-9.354c5.158,0,9.354,4.196,9.354,9.354
		C208.393,207.978,204.197,212.175,199.039,212.175z M199.039,198.001c-2.657,0-4.819,2.162-4.819,4.819
		c0,2.657,2.162,4.819,4.819,4.819c2.657,0,4.819-2.162,4.819-4.819C203.858,200.163,201.696,198.001,199.039,198.001z"/>
</g>
<g>
	<path fill="none" stroke="#323232" stroke-width="0.2835" stroke-miterlimit="10" d="M402.418,212.175
		c-5.158,0-9.354-4.196-9.354-9.354c0-5.158,4.188-9.354,9.354-9.354s9.354,4.196,9.354,9.354
		C411.771,207.978,407.577,212.175,402.418,212.175z M402.418,198.001c-2.656,0-4.818,2.162-4.818,4.819
		c0,2.657,2.162,4.819,4.818,4.819c2.658,0,4.82-2.162,4.82-4.819C407.239,200.163,405.077,198.001,402.418,198.001z"/>
</g>
<rect x="244.292" y="193.466" fill="none" stroke="#323232" stroke-width="0.2835" stroke-miterlimit="10" width="4.536" height="18.708"/>
<polygon fill="none" stroke="#323232" stroke-width="0.2835" stroke-miterlimit="10" points="109.349,459.244 95.002,372.915 
	125.35,372.915 111.003,459.244 "/>
<text transform="matrix(1 0 0 1 652.4092 49.7568)" fill="none" stroke="#323232" stroke-miterlimit="10" font-family="'MyriadPro-Regular'" font-size="12">Decor = 1.25</text>
<text transform="matrix(1 0 0 1 652.4092 64.1572)" fill="none" stroke="#323232" stroke-miterlimit="10" font-family="'MyriadPro-Regular'" font-size="12">Blades = 0.8</text>
<rect x="550.749" y="183.1" fill="none" stroke="#323232" stroke-width="0.2835" stroke-miterlimit="10" width="30.614" height="271.083"/>
<path fill="none" stroke="#323232" stroke-width="0.2835" stroke-miterlimit="10" d="M71.158,124.833v30.614h119.165v-11.289
	c0-4.854,3.934-8.788,8.788-8.788s8.788,3.935,8.788,8.788v11.289h29.75v-11.279c0-0.003,0-0.006,0-0.01
	c0-4.854,3.935-8.788,8.788-8.788s8.788,3.935,8.788,8.788v11.289H393.63v-11.289h0.001c0-4.854,3.938-8.788,8.788-8.788
	c4.854,0,8.788,3.935,8.788,8.788c0,0.013-0.002,0.025-0.002,0.039v11.25h25.034v-21.26h34.582v21.26h73.284v-30.614H71.158z"/>
<polygon fill="none" stroke="#323232" stroke-width="0.2835" stroke-miterlimit="10" points="544.089,173.279 470.667,173.279 
	470.667,217.254 436.239,217.254 436.239,173.279 71.158,173.279 71.158,464 544.105,464 "/>
<path fill="none" stroke="#323232" stroke-width="0.2835" d="M117.057,380.185c0-3.759-3.046-6.804-6.803-6.804
	c-3.759,0-6.803,3.048-6.803,6.804c0,0.001,0,0.003,0,0.003l0,0v20.25h0.033c0.327,3.468,3.233,6.159,6.77,6.159
	c3.541,0,6.444-2.704,6.771-6.159h0.033v-20.25l0,0C117.057,380.188,117.057,380.186,117.057,380.185z"/>
<polygon fill="none" stroke="#323232" stroke-width="0.2835" stroke-miterlimit="10" points="166.135,459.244 151.788,372.915 
	182.136,372.915 167.79,459.244 "/>
<path fill="none" stroke="#323232" stroke-width="0.2835" d="M173.843,380.185c0-3.759-3.046-6.804-6.803-6.804
	c-3.759,0-6.803,3.048-6.803,6.804c0,0.001,0,0.003,0,0.003l0,0v20.25h0.033c0.327,3.468,3.233,6.159,6.77,6.159
	c3.541,0,6.444-2.704,6.771-6.159h0.033v-20.25l0,0C173.843,380.188,173.843,380.186,173.843,380.185z"/>
<polygon fill="none" stroke="#323232" stroke-width="0.2835" stroke-miterlimit="10" points="222.942,459.244 208.596,372.915 
	238.944,372.915 224.597,459.244 "/>
<path fill="none" stroke="#323232" stroke-width="0.2835" d="M230.651,380.185c0-3.759-3.046-6.804-6.803-6.804
	c-3.759,0-6.803,3.048-6.803,6.804c0,0.001,0,0.003,0,0.003l0,0v20.25h0.033c0.327,3.468,3.233,6.159,6.77,6.159
	c3.541,0,6.444-2.704,6.771-6.159h0.033v-20.25l0,0C230.651,380.188,230.651,380.186,230.651,380.185z"/>
<polygon fill="none" stroke="#323232" stroke-width="0.2835" stroke-miterlimit="10" points="279.557,459.244 265.21,372.915 
	295.558,372.915 281.211,459.244 "/>
<path fill="none" stroke="#323232" stroke-width="0.2835" d="M287.265,380.185c0-3.759-3.046-6.804-6.803-6.804
	c-3.759,0-6.803,3.048-6.803,6.804c0,0.001,0,0.003,0,0.003l0,0v20.25h0.033c0.327,3.468,3.233,6.159,6.77,6.159
	c3.541,0,6.444-2.704,6.771-6.159h0.033v-20.25l0,0C287.265,380.188,287.265,380.186,287.265,380.185z"/>
<polygon fill="none" stroke="#323232" stroke-width="0.2835" stroke-miterlimit="10" points="335.862,459.244 321.515,372.915 
	351.863,372.915 337.517,459.244 "/>
<path fill="none" stroke="#323232" stroke-width="0.2835" d="M343.57,380.185c0-3.759-3.046-6.804-6.803-6.804
	c-3.759,0-6.803,3.048-6.803,6.804c0,0.001,0,0.003,0,0.003l0,0v20.25h0.033c0.327,3.468,3.233,6.159,6.77,6.159
	c3.541,0,6.444-2.704,6.771-6.159h0.033v-20.25l0,0C343.57,380.188,343.57,380.186,343.57,380.185z"/>
<polygon fill="none" stroke="#323232" stroke-width="0.2835" stroke-miterlimit="10" points="392.971,459.244 378.624,372.915 
	408.972,372.915 394.625,459.244 "/>
<path fill="none" stroke="#323232" stroke-width="0.2835" d="M400.679,380.185c0-3.759-3.046-6.804-6.804-6.804
	s-6.802,3.048-6.802,6.804c0,0.001,0,0.003,0,0.003l0,0v20.25h0.033c0.327,3.468,3.233,6.159,6.77,6.159
	c3.541,0,6.444-2.704,6.771-6.159h0.032v-20.25l0,0C400.679,380.188,400.679,380.186,400.679,380.185z"/>
<polygon fill="none" stroke="#323232" stroke-width="0.2835" stroke-miterlimit="10" points="449.951,459.244 435.604,372.915 
	465.952,372.915 451.605,459.244 "/>
<path fill="none" stroke="#323232" stroke-width="0.2835" d="M457.659,380.185c0-3.759-3.046-6.804-6.804-6.804
	c-3.763,0-6.808,3.048-6.808,6.804c0,0.001,0,0.003,0,0.003l0,0v20.25h0.033c0.326,3.468,3.233,6.159,6.771,6.159
	c3.539,0,6.442-2.704,6.771-6.159h0.032v-20.25l0,0C457.659,380.188,457.659,380.186,457.659,380.185z"/>
<polygon fill="none" stroke="#323232" stroke-width="0.2835" stroke-miterlimit="10" points="506.355,459.244 492.008,372.915 
	522.356,372.915 508.01,459.244 "/>
<path fill="none" stroke="#323232" stroke-width="0.2835" d="M514.062,380.185c0-3.759-3.05-6.804-6.808-6.804
	s-6.803,3.048-6.803,6.804c0,0.001,0,0.003,0,0.003l0,0v20.25h0.033c0.323,3.468,3.229,6.159,6.77,6.159s6.444-2.704,6.771-6.159
	h0.027v-20.25l0,0C514.062,380.188,514.062,380.186,514.062,380.185z"/>
<path fill="none" stroke="#323232" stroke-width="0.2835" stroke-linecap="round" stroke-linejoin="round" d="M533.644,505.613"/>
<path fill="none" stroke="#323232" stroke-width="0.2835" stroke-linecap="round" stroke-linejoin="round" d="M80.104,505.608"/>
<circle fill="none" stroke="#323232" stroke-width="0.2835" stroke-miterlimit="10" cx="526.556" cy="522.39" r="4.252"/>
<path fill="none" stroke="#323232" stroke-width="0.2835" stroke-miterlimit="10" d="M91.44,522.39c0,2.354-1.903,4.255-4.254,4.255
	c-2.348,0-4.25-1.898-4.25-4.255c0-2.348,1.902-4.25,4.25-4.25C89.537,518.14,91.44,520.042,91.44,522.39z"/>
<path fill="none" stroke="#323232" stroke-width="0.2835" stroke-miterlimit="10" d="M91.483,727.878
	c0,2.354-1.903,4.254-4.254,4.254c-2.348,0-4.25-1.896-4.25-4.254c0-2.351,1.902-4.25,4.25-4.25
	C89.58,723.628,91.483,725.531,91.483,727.878z"/>
<path fill="none" stroke="#323232" stroke-width="0.2835" stroke-miterlimit="10" d="M91.44,779.551
	c0,2.354-1.903,4.254-4.254,4.254c-2.348,0-4.25-1.897-4.25-4.254c0-2.354,1.902-4.25,4.25-4.25
	C89.537,775.301,91.44,777.202,91.44,779.551z"/>
<path fill="none" stroke="#323232" stroke-width="0.2835" stroke-miterlimit="10" d="M530.847,727.878
	c0,2.354-1.896,4.254-4.254,4.254c-2.35,0-4.25-1.896-4.25-4.254c0-2.351,1.9-4.25,4.25-4.25
	C528.944,723.628,530.847,725.531,530.847,727.878z"/>
<path fill="none" stroke="#323232" stroke-width="0.2835" stroke-miterlimit="10" d="M530.849,779.551
	c0,2.354-1.896,4.254-4.254,4.254c-2.348,0-4.25-1.897-4.25-4.254c0-2.354,1.902-4.25,4.25-4.25
	C528.944,775.301,530.849,777.202,530.849,779.551z"/>
<polygon fill="none" stroke="#323232" stroke-width="0.2835" stroke-miterlimit="10" points="543.34,505.61 70.409,505.61 
	70.409,796.331 543.356,796.331 "/>
<rect x="71.159" y="81.538" fill="none" stroke="#323232" stroke-width="0.2835" stroke-miterlimit="10" width="472.947" height="30.614"/>
</svg>
